<svg width="13" height="16" viewBox="0 0 13 16" fill="none" xmlns="http://www.w3.org/2000/svg">
    <path d="M12.1497 1.17895H8.72727V1.14526C8.72727 0.505263 8.2139 0 7.56364 0H5.23636C4.5861 0 4.07273 0.505263 4.07273 1.14526V1.17895H0.650267C0.290909 1.17895 0 1.46526 0 1.81895V2.45895C0 2.81263 0.290909 3.09895 0.650267 3.09895H12.1497C12.5091 3.09895 12.8 2.81263 12.8 2.45895V1.81895C12.8 1.46526 12.5091 1.17895 12.1497 1.17895Z" fill="#0D5068"/>
    <path d="M11.293 3.97461H1.50478C1.31654 3.97461 1.17964 4.12619 1.19676 4.31145L1.6759 14.063C1.72724 15.1409 2.63419 15.9999 3.72938 15.9999H9.0513C10.1465 15.9999 11.0534 15.1578 11.1048 14.063L11.5839 4.31145C11.6181 4.14303 11.4641 3.97461 11.293 3.97461ZM5.33793 13.3893C5.33793 13.6925 5.09836 13.9283 4.79034 13.9283C4.48232 13.9283 4.24275 13.6925 4.24275 13.3893V6.60198C4.24275 6.29882 4.48232 6.06303 4.79034 6.06303C5.09836 6.06303 5.33793 6.29882 5.33793 6.60198V13.3893ZM8.55505 13.3893C8.55505 13.6925 8.31547 13.9283 8.00745 13.9283C7.69943 13.9283 7.45986 13.6925 7.45986 13.3893V6.60198C7.45986 6.29882 7.69943 6.06303 8.00745 6.06303C8.31547 6.06303 8.55505 6.29882 8.55505 6.60198V13.3893Z" fill="#0D5068"/>
</svg>